<svg width="44" height="45" viewBox="0 0 44 45" fill="none" xmlns="http://www.w3.org/2000/svg">
<path d="M34.728 9.772C33.0565 8.10054 31.0722 6.77466 28.8883 5.87007C26.7045 4.96548 24.3638 4.49989 22 4.49989C19.6362 4.49989 17.2955 4.96548 15.1117 5.87007C12.9278 6.77466 10.9435 8.10053 9.272 9.772C7.60053 11.4435 6.27466 13.4278 5.37007 15.6117C4.46548 17.7955 3.99989 20.1362 3.99989 22.5C3.99989 24.8638 4.46548 27.2045 5.37007 29.3883C6.27466 31.5722 7.60054 33.5565 9.272 35.228C12.6477 38.6037 17.2261 40.5001 22 40.5001C26.7739 40.5001 31.3523 38.6037 34.728 35.228C38.1037 31.8523 40.0001 27.2739 40.0001 22.5C40.0001 17.7261 38.1037 13.1477 34.728 9.772ZM6.444 6.944C15.036 -1.648 28.964 -1.648 37.556 6.944C46.148 15.536 46.148 29.464 37.556 38.056C28.964 46.648 15.036 46.648 6.444 38.056C-2.148 29.464 -2.148 15.536 6.444 6.944ZM32.884 11.618L22.954 37.438L18.754 25.75L7.064 21.55L32.884 11.618ZM18.536 21.422L21.88 22.622L23.08 25.966L25.92 18.582L18.536 21.422Z" fill="#FCF8F3"/>
</svg>
