<svg width="48" height="48" viewBox="0 0 48 48" fill="none" xmlns="http://www.w3.org/2000/svg">
<path d="M43.53 17.631L12.624 14.211L10.74 7.07249C10.6745 6.83307 10.5325 6.62165 10.3356 6.47052C10.1387 6.31939 9.89771 6.23684 9.6495 6.23549H5.01C4.84231 6.00977 4.62464 5.82594 4.37403 5.69842C4.12341 5.57091 3.84667 5.50316 3.5655 5.50049C3.0716 5.50049 2.59793 5.69669 2.24869 6.04593C1.89945 6.39517 1.70325 6.86884 1.70325 7.36274C1.70325 7.85664 1.89945 8.33031 2.24869 8.67955C2.59793 9.02879 3.0716 9.22499 3.5655 9.22499C4.1655 9.22499 4.6725 8.92499 5.013 8.48699H8.781L16.626 38.187C15.7702 39.0979 15.293 40.3002 15.291 41.55C15.2904 42.1987 15.4177 42.8411 15.6656 43.4406C15.9136 44.0401 16.2773 44.5848 16.7359 45.0435C17.1945 45.5023 17.7391 45.8661 18.3385 46.1143C18.9379 46.3624 19.5803 46.4899 20.229 46.4895C21.5397 46.4899 22.7969 45.9698 23.7243 45.0435C24.6517 44.1173 25.1733 42.8607 25.1745 41.55C25.1719 41.1743 25.1251 40.8002 25.035 40.4355H33.3345C33.2457 40.8004 33.1994 41.1744 33.1965 41.55C33.1965 44.28 35.4105 46.4895 38.1405 46.4895C40.8705 46.4895 43.08 44.28 43.08 41.55C43.0804 40.239 42.5601 38.9816 41.6335 38.0541C40.7069 37.1267 39.45 36.6053 38.139 36.6045C36.714 36.6045 35.439 37.2195 34.536 38.184H23.832C23.3726 37.6867 22.8155 37.2897 22.1955 37.0179C21.5754 36.7461 20.906 36.6054 20.229 36.6045C19.659 36.6045 19.122 36.7215 18.6135 36.8985L18.3405 35.8695H40.215C41.0556 35.8523 41.8661 35.5531 42.5163 35.0199C43.1665 34.4867 43.6186 33.7505 43.8 32.9295L46.1625 21.2325C46.2023 21.0279 46.2224 20.8199 46.2225 20.6115C46.2236 19.869 45.9487 19.1526 45.4511 18.6015C44.9535 18.0504 44.2688 17.7054 43.53 17.631ZM38.142 41.991C38.0245 41.9906 37.9118 41.9439 37.8285 41.8611C37.7451 41.7783 37.6977 41.666 37.6965 41.5485C37.701 41.2995 37.899 41.1015 38.1435 41.1015C38.388 41.1015 38.586 41.2995 38.589 41.547C38.5874 41.6642 38.5398 41.7762 38.4565 41.8587C38.3732 41.9412 38.2608 41.9876 38.1435 41.988L38.142 41.991ZM40.812 30.7485L42.234 29.3235L41.757 31.6935L40.812 30.7485ZM19.1325 17.193L20.685 18.75L18.75 20.685L16.8105 18.75L18.441 17.118L19.1325 17.193ZM25.8795 17.94L26.6865 18.75L24.7515 20.685L22.812 18.75L23.844 17.715L25.8795 17.94ZM14.445 21.114L15.75 19.812L17.685 21.75L15.75 23.685L14.9025 22.8405L14.4465 21.1125L14.445 21.114ZM14.0025 19.434L13.5105 17.574L14.688 18.7515L14.0025 19.434ZM32.685 24.75L30.75 26.685L28.8105 24.75L30.7485 22.8105L32.685 24.75ZM31.8105 21.75L33.7485 19.812L35.6835 21.75L33.7485 23.688L31.8105 21.75ZM27.75 23.685L25.8105 21.75L27.7485 19.8105L29.6835 21.7485L27.75 23.685ZM26.685 24.75L24.75 26.685L22.812 24.75L24.75 22.8105L26.685 24.75ZM21.75 23.685L19.8105 21.75L21.7485 19.8105L23.6835 21.7485L21.75 23.685ZM20.685 24.75L18.75 26.685L16.8105 24.75L18.7485 22.8105L20.685 24.75ZM15.75 25.8105L17.685 27.7485L16.509 28.923L15.699 25.857L15.7485 25.8075L15.75 25.8105ZM16.953 30.606L18.7485 28.8105L20.6835 30.7485L18.7485 32.6835L17.0535 30.9885L16.953 30.606ZM19.812 27.7485L21.747 25.809L23.6865 27.747L21.7515 29.682L19.8135 27.747L19.812 27.7485ZM24.75 28.809L26.688 30.747L24.75 32.682L22.812 30.747L24.75 28.809ZM25.812 27.747L27.75 25.8075L29.685 27.7455L27.75 29.6805L25.812 27.747ZM30.747 28.8075L32.6865 30.7455L30.7515 32.6805L28.8135 30.7425L30.747 28.8075ZM31.812 27.7455L33.747 25.806L35.6865 27.744L33.7515 29.679L31.812 27.7455ZM34.812 24.7455L36.747 22.806L38.6865 24.744L36.7515 26.679L34.812 24.7455ZM37.812 21.7455L39.747 19.806L41.685 21.75L39.75 23.688L37.8105 21.7485L37.812 21.7455ZM36.747 20.6835L35.0145 18.9495L38.1375 19.2945L36.747 20.6835ZM32.688 18.75L30.753 20.688L28.8135 18.75L29.2485 18.315L32.628 18.69L32.688 18.75ZM21.753 17.685L21.525 17.46L21.9345 17.505L21.7545 17.685H21.753ZM15.753 17.688L14.778 16.713L16.533 16.908L15.753 17.688ZM21.753 31.8105L23.5605 33.618H19.9455L21.753 31.8105ZM27.753 31.8105L29.5605 33.6195H25.9425L27.753 31.8105ZM33.753 31.8105L35.5635 33.621H31.9425L33.753 31.8105ZM34.8135 30.7485L36.7515 28.809L38.6865 30.747L36.7515 32.682L34.8135 30.7485ZM37.8135 27.7485L39.7515 25.8105L41.6865 27.7455L39.7515 29.685L37.812 27.75L37.8135 27.7485ZM42.7515 26.6835L40.8135 24.7485L42.7485 22.8105L43.416 23.4765L42.771 26.6625L42.75 26.685L42.7515 26.6835ZM43.5015 19.9335L42.7515 20.6835L41.7615 19.698L43.287 19.866C43.368 19.878 43.437 19.905 43.503 19.932L43.5015 19.9335ZM20.232 41.9895C20.1185 41.9829 20.0118 41.9332 19.9338 41.8505C19.8558 41.7678 19.8123 41.6584 19.8123 41.5447C19.8123 41.4311 19.8558 41.3217 19.9338 41.239C20.0118 41.1563 20.1185 41.1066 20.232 41.1C20.3451 41.1066 20.4514 41.1561 20.5291 41.2385C20.6069 41.3209 20.6502 41.4299 20.6502 41.5432C20.6502 41.6565 20.6069 41.7655 20.5291 41.8479C20.4514 41.9303 20.3451 41.9799 20.232 41.9865V41.9895ZM40.2165 33.6195H37.941L39.7515 31.809L41.1465 33.204C40.866 33.459 40.512 33.639 40.2165 33.6195Z" fill="#555555"/>
</svg>
