<svg width="48" height="49" viewBox="0 0 48 49" fill="none" xmlns="http://www.w3.org/2000/svg">
<path d="M43.53 18.131L12.624 14.711L10.74 7.57249C10.6745 7.33307 10.5325 7.12165 10.3356 6.97052C10.1387 6.81939 9.89771 6.73684 9.6495 6.73549H5.01C4.84231 6.50977 4.62464 6.32594 4.37403 6.19842C4.12341 6.07091 3.84667 6.00316 3.5655 6.00049C3.0716 6.00049 2.59793 6.19669 2.24869 6.54593C1.89945 6.89517 1.70325 7.36884 1.70325 7.86274C1.70325 8.35664 1.89945 8.83031 2.24869 9.17955C2.59793 9.52879 3.0716 9.72499 3.5655 9.72499C4.1655 9.72499 4.6725 9.42499 5.013 8.98699H8.781L16.626 38.687C15.7702 39.5979 15.293 40.8002 15.291 42.05C15.2904 42.6987 15.4177 43.3411 15.6656 43.9406C15.9136 44.5401 16.2773 45.0848 16.7359 45.5435C17.1945 46.0023 17.7391 46.3661 18.3385 46.6143C18.9379 46.8624 19.5803 46.9899 20.229 46.9895C21.5397 46.9899 22.7969 46.4698 23.7243 45.5435C24.6517 44.6173 25.1733 43.3607 25.1745 42.05C25.1719 41.6743 25.1251 41.3002 25.035 40.9355H33.3345C33.2457 41.3004 33.1994 41.6744 33.1965 42.05C33.1965 44.78 35.4105 46.9895 38.1405 46.9895C40.8705 46.9895 43.08 44.78 43.08 42.05C43.0804 40.739 42.5601 39.4816 41.6335 38.5541C40.7069 37.6267 39.45 37.1053 38.139 37.1045C36.714 37.1045 35.439 37.7195 34.536 38.684H23.832C23.3726 38.1867 22.8155 37.7897 22.1955 37.5179C21.5754 37.2461 20.906 37.1054 20.229 37.1045C19.659 37.1045 19.122 37.2215 18.6135 37.3985L18.3405 36.3695H40.215C41.0556 36.3523 41.8661 36.0531 42.5163 35.5199C43.1665 34.9867 43.6186 34.2505 43.8 33.4295L46.1625 21.7325C46.2023 21.5279 46.2224 21.3199 46.2225 21.1115C46.2236 20.369 45.9487 19.6526 45.4511 19.1015C44.9535 18.5504 44.2688 18.2054 43.53 18.131ZM38.142 42.491C38.0245 42.4906 37.9118 42.4439 37.8285 42.3611C37.7451 42.2783 37.6977 42.166 37.6965 42.0485C37.701 41.7995 37.899 41.6015 38.1435 41.6015C38.388 41.6015 38.586 41.7995 38.589 42.047C38.5874 42.1642 38.5398 42.2762 38.4565 42.3587C38.3732 42.4412 38.2608 42.4876 38.1435 42.488L38.142 42.491ZM40.812 31.2485L42.234 29.8235L41.757 32.1935L40.812 31.2485ZM19.1325 17.693L20.685 19.25L18.75 21.185L16.8105 19.25L18.441 17.618L19.1325 17.693ZM25.8795 18.44L26.6865 19.25L24.7515 21.185L22.812 19.25L23.844 18.215L25.8795 18.44ZM14.445 21.614L15.75 20.312L17.685 22.25L15.75 24.185L14.9025 23.3405L14.4465 21.6125L14.445 21.614ZM14.0025 19.934L13.5105 18.074L14.688 19.2515L14.0025 19.934ZM32.685 25.25L30.75 27.185L28.8105 25.25L30.7485 23.3105L32.685 25.25ZM31.8105 22.25L33.7485 20.312L35.6835 22.25L33.7485 24.188L31.8105 22.25ZM27.75 24.185L25.8105 22.25L27.7485 20.3105L29.6835 22.2485L27.75 24.185ZM26.685 25.25L24.75 27.185L22.812 25.25L24.75 23.3105L26.685 25.25ZM21.75 24.185L19.8105 22.25L21.7485 20.3105L23.6835 22.2485L21.75 24.185ZM20.685 25.25L18.75 27.185L16.8105 25.25L18.7485 23.3105L20.685 25.25ZM15.75 26.3105L17.685 28.2485L16.509 29.423L15.699 26.357L15.7485 26.3075L15.75 26.3105ZM16.953 31.106L18.7485 29.3105L20.6835 31.2485L18.7485 33.1835L17.0535 31.4885L16.953 31.106ZM19.812 28.2485L21.747 26.309L23.6865 28.247L21.7515 30.182L19.8135 28.247L19.812 28.2485ZM24.75 29.309L26.688 31.247L24.75 33.182L22.812 31.247L24.75 29.309ZM25.812 28.247L27.75 26.3075L29.685 28.2455L27.75 30.1805L25.812 28.247ZM30.747 29.3075L32.6865 31.2455L30.7515 33.1805L28.8135 31.2425L30.747 29.3075ZM31.812 28.2455L33.747 26.306L35.6865 28.244L33.7515 30.179L31.812 28.2455ZM34.812 25.2455L36.747 23.306L38.6865 25.244L36.7515 27.179L34.812 25.2455ZM37.812 22.2455L39.747 20.306L41.685 22.25L39.75 24.188L37.8105 22.2485L37.812 22.2455ZM36.747 21.1835L35.0145 19.4495L38.1375 19.7945L36.747 21.1835ZM32.688 19.25L30.753 21.188L28.8135 19.25L29.2485 18.815L32.628 19.19L32.688 19.25ZM21.753 18.185L21.525 17.96L21.9345 18.005L21.7545 18.185H21.753ZM15.753 18.188L14.778 17.213L16.533 17.408L15.753 18.188ZM21.753 32.3105L23.5605 34.118H19.9455L21.753 32.3105ZM27.753 32.3105L29.5605 34.1195H25.9425L27.753 32.3105ZM33.753 32.3105L35.5635 34.121H31.9425L33.753 32.3105ZM34.8135 31.2485L36.7515 29.309L38.6865 31.247L36.7515 33.182L34.8135 31.2485ZM37.8135 28.2485L39.7515 26.3105L41.6865 28.2455L39.7515 30.185L37.812 28.25L37.8135 28.2485ZM42.7515 27.1835L40.8135 25.2485L42.7485 23.3105L43.416 23.9765L42.771 27.1625L42.75 27.185L42.7515 27.1835ZM43.5015 20.4335L42.7515 21.1835L41.7615 20.198L43.287 20.366C43.368 20.378 43.437 20.405 43.503 20.432L43.5015 20.4335ZM20.232 42.4895C20.1185 42.4829 20.0118 42.4332 19.9338 42.3505C19.8558 42.2678 19.8123 42.1584 19.8123 42.0447C19.8123 41.9311 19.8558 41.8217 19.9338 41.739C20.0118 41.6563 20.1185 41.6066 20.232 41.6C20.3451 41.6066 20.4514 41.6561 20.5291 41.7385C20.6069 41.8209 20.6502 41.9299 20.6502 42.0432C20.6502 42.1565 20.6069 42.2655 20.5291 42.3479C20.4514 42.4303 20.3451 42.4799 20.232 42.4865V42.4895ZM40.2165 34.1195H37.941L39.7515 32.309L41.1465 33.704C40.866 33.959 40.512 34.139 40.2165 34.1195Z" fill="#FCF8F3"/>
</svg>
